<?xml version="1.0" encoding="UTF-8" standalone="no"?>
<!-- Created with Inkscape (http://www.inkscape.org/) -->

<svg width="20.880001mm" height="24.416mm" viewBox="0 0 20.880002 24.416001" version="1.1" id="svg5" inkscape:version="1.2.2 (b0a8486541, 2022-12-01)" sodipodi:docname="tap4art2.svg" xmlns:inkscape="http://www.inkscape.org/namespaces/inkscape" xmlns:sodipodi="http://sodipodi.sourceforge.net/DTD/sodipodi-0.dtd" xmlns="http://www.w3.org/2000/svg" xmlns:svg="http://www.w3.org/2000/svg">
  <sodipodi:namedview id="namedview7" pagecolor="#ffffff" bordercolor="#666666" borderopacity="1.0" inkscape:showpageshadow="2" inkscape:pageopacity="0.0" inkscape:pagecheckerboard="0" inkscape:deskcolor="#d1d1d1" inkscape:document-units="mm" showgrid="false" inkscape:zoom="13.455443" inkscape:cx="47.713033" inkscape:cy="42.807955" inkscape:window-width="1920" inkscape:window-height="1131" inkscape:window-x="0" inkscape:window-y="0" inkscape:window-maximized="1" inkscape:current-layer="layer1" />
  <defs id="defs2">
    <rect x="317.22379" y="443.58926" width="288.80499" height="207.76013" id="rect480" />
    <rect x="128.29073" y="303.34052" width="486.75394" height="537.05377" id="rect242" />
    <rect x="99.571823" y="298.34662" width="694.12897" height="730.64685" id="rect236" />
  </defs>
  <g inkscape:label="Layer 1" inkscape:groupmode="layer" id="layer1" transform="translate(-32.721199,-128.76714)">
    <path style="fill:#fefefe;stroke:none;stroke-width:0.264583px;stroke-linecap:butt;stroke-linejoin:miter;stroke-opacity:1;fill-opacity:0.57455117" d="m 43.144453,141.49362 1.085428,2.90476 0.270449,0.16455 2.095447,-0.75355 0.03137,-0.43387 -1.795739,-4.63131 -0.534583,-0.022 -0.464755,-0.85882 -1.373024,-0.65999 -1.264738,0.3744 -0.789867,0.77046 -0.255929,0.85299 0.168873,1.11327 0.376145,0.46738 0.526253,0.49489 0.712471,0.31491 h 0.754703 z" id="path19233" />
    <text xml:space="preserve" transform="scale(0.26458333)" id="text234" style="font-style:normal;font-weight:normal;font-size:40px;line-height:1.25;font-family:sans-serif;white-space:pre;shape-inside:url(#rect236);display:inline;fill:black;fill-opacity:1;stroke:none" />
    <path d="m 39.92808,129.7675 v 0.39159 h -2.783417 v 6.97441 h -0.381 v -6.97441 h -2.783416 v -0.39159 z" style="font-size:40px;line-height:1.25;font-family:'Major Mono Display';-inkscape-font-specification:'Major Mono Display';white-space:pre;stroke-width:0.264583" id="path354" />
    <path id="path356" style="font-size:40px;line-height:1.25;font-family:'Major Mono Display';-inkscape-font-specification:'Major Mono Display';white-space:pre;stroke-width:0.264583" d="M 43.214615 129.76708 L 40.419954 136.56718 A 5.3325124 5.3325124 0 0 0 39.56936 137.2922 L 34.20793 137.2922 L 34.20793 144.65816 L 34.599637 144.65816 L 34.599637 141.16535 L 38.098132 141.16535 A 5.3325124 5.3325124 0 0 0 40.589969 145.48808 L 40.589969 152.18277 L 40.98116 152.18277 L 40.98116 149.6532 L 43.637845 149.6532 L 43.976326 149.64287 L 45.786035 152.18277 L 46.251639 152.18277 L 44.378369 149.56845 C 44.900476 149.42734 45.3273 149.14205 45.658911 148.71166 C 45.997574 148.27422 46.167407 147.77992 46.167407 147.22958 C 46.167407 146.75686 46.04383 146.32676 45.796887 145.9387 C 45.764757 145.8867 45.731057 145.83634 45.695601 145.78781 A 5.3325124 5.3325124 0 0 0 46.654199 145.20645 L 46.654199 145.20851 L 49.437491 145.20851 L 49.437491 152.18277 L 49.818347 152.18277 L 49.818347 145.20851 L 52.601639 145.20851 L 52.601639 144.81681 L 47.105851 144.81681 A 5.3325124 5.3325124 0 0 0 48.62152 142.1286 L 49.844702 142.1286 L 50.183699 142.11826 L 51.993408 144.65816 L 52.459012 144.65816 L 50.585742 142.04385 C 51.107848 141.90274 51.534673 141.61693 51.866284 141.18654 C 52.204945 140.74909 52.374263 140.2553 52.374263 139.70497 C 52.374263 139.23225 52.250687 138.80215 52.003743 138.4141 C 51.763854 138.02604 51.4323 137.73315 51.008972 137.5356 C 50.825528 137.4509 50.620833 137.39102 50.395056 137.35576 C 50.176334 137.31346 49.911745 137.2922 49.601306 137.2922 L 47.270182 137.2922 A 5.3325124 5.3325124 0 0 0 47.167346 137.1811 L 47.167346 134.9001 L 49.739282 134.9001 C 50.261387 134.9001 50.708924 134.8048 51.082869 134.61433 C 51.513257 134.39561 51.8524 134.08201 52.099344 133.67278 C 52.353339 133.26356 52.4802 132.81551 52.4802 132.32868 C 52.4802 131.82068 52.356624 131.37263 52.10968 130.98458 C 51.862735 130.59652 51.527389 130.29656 51.104056 130.08489 C 50.687785 129.87322 50.233165 129.76708 49.739282 129.76708 L 46.775638 129.76708 L 46.775638 136.83073 A 5.3325124 5.3325124 0 0 0 46.421655 136.56718 L 43.626993 129.76708 L 43.214615 129.76708 z M 47.167346 130.15879 L 49.739282 130.15879 C 50.183776 130.15879 50.550195 130.22959 50.839473 130.37066 C 51.220473 130.54705 51.524234 130.81164 51.750012 131.16441 C 51.975788 131.51719 52.088492 131.90535 52.088492 132.32868 C 52.088492 132.75907 51.975788 133.15051 51.750012 133.50329 C 51.524234 133.85606 51.22427 134.12065 50.850325 134.29704 C 50.561048 134.4381 50.190832 134.50839 49.739282 134.50839 L 47.167346 134.50839 L 47.167346 130.15879 z M 43.415637 130.27506 L 45.077034 134.31822 L 41.764575 134.31822 L 43.415637 130.27506 z M 41.605928 134.69908 L 45.235681 134.69908 L 45.865616 136.24007 A 5.3325124 5.3325124 0 0 0 43.420804 135.64269 A 5.3325124 5.3325124 0 0 0 40.967724 136.24472 L 41.605928 134.69908 z M 43.404785 136.01786 A 4.9573131 4.9573131 0 0 1 48.362105 140.97518 A 4.9573131 4.9573131 0 0 1 43.404785 145.9325 A 4.9573131 4.9573131 0 0 1 38.447464 140.97518 A 4.9573131 4.9573131 0 0 1 43.404785 136.01786 z M 34.599637 137.68339 L 39.229846 137.68339 A 5.3325124 5.3325124 0 0 0 38.098132 140.77416 L 34.599637 140.77416 L 34.599637 137.68339 z M 47.609179 137.68339 L 49.601306 137.68339 C 50.102244 137.68339 50.490409 137.74 50.765576 137.85289 C 51.14657 138.01517 51.442748 138.26233 51.65441 138.59393 C 51.873132 138.92555 51.982556 139.29575 51.982556 139.70497 C 51.982556 140.07186 51.891086 140.41049 51.707637 140.72093 C 51.524193 141.03137 51.277042 141.27852 50.966597 141.46197 C 50.656153 141.64541 50.317527 141.73689 49.950638 141.73689 L 48.692834 141.73689 A 5.3325124 5.3325124 0 0 0 48.753295 140.97518 A 5.3325124 5.3325124 0 0 0 47.609179 137.68339 z M 40.98116 145.71339 A 5.3325124 5.3325124 0 0 0 43.420804 146.30767 A 5.3325124 5.3325124 0 0 0 45.326114 145.94955 C 45.369224 146.00325 45.409835 146.05945 45.447554 146.11854 C 45.666276 146.45015 45.775699 146.82036 45.775699 147.22958 C 45.775699 147.59647 45.683709 147.9351 45.500264 148.24554 C 45.31682 148.55599 45.070184 148.80314 44.759741 148.98658 C 44.449297 149.17003 44.110671 149.26201 43.743782 149.26201 L 40.98116 149.26201 L 40.98116 145.71339 z " />
    <path d="m 36.747788,144.817 h 0.41275 l 3.026833,7.366 h -0.423333 l -0.994833,-2.43417 h -3.630084 l -1.005416,2.43417 h -0.41275 z m -1.449917,4.55083 h 3.312584 L 36.948871,145.325 Z" style="font-size:40px;line-height:1.25;font-family:'Major Mono Display';-inkscape-font-specification:'Major Mono Display';white-space:pre;stroke-width:0.264583" id="path366" />
    <path id="path19202" style="fill:black;stroke-width:0.349999;stroke-linecap:round;stroke-linejoin:round;stroke-miterlimit:10" d="m 42.288956,137.12349 c -1.266571,0 -2.29709,1.03051 -2.297091,2.29709 1e-6,1.26658 1.03052,2.29709 2.297091,2.29709 0.246222,0 0.482989,-0.0401 0.705455,-0.11231 l 0.956965,2.72886 c 0.103299,0.29456 0.449047,0.41538 0.75217,0.30908 l 1.619007,-0.56766 c 0.303121,-0.10629 0.497315,-0.41654 0.394016,-0.71112 l -1.56946,-4.47621 c -0.100279,-0.28595 -0.429284,-0.40968 -0.725745,-0.31946 -0.339086,-0.846 -1.166745,-1.44536 -2.132408,-1.44536 z m 0,0.31898 c 0.829341,0 1.537993,0.50808 1.832295,1.23066 l -0.446867,0.15666 c -0.230787,-0.53693 -0.765295,-0.91449 -1.385428,-0.91449 -0.82989,0 -1.505284,0.67538 -1.505284,1.50528 0,0.8299 0.675394,1.50528 1.505284,1.50528 0.154513,0 0.303541,-0.0235 0.444036,-0.067 l 0.156191,0.44593 c -0.189293,0.0601 -0.390831,0.0934 -0.600227,0.0934 -1.093848,0 -1.976216,-0.88378 -1.976216,-1.97764 0,-1.09386 0.882368,-1.9781 1.976216,-1.9781 z m 0,0.79181 c 0.484309,0 0.89844,0.28747 1.082955,0.70168 l -0.36995,0.12977 c -0.131253,-0.26165 -0.401807,-0.44263 -0.713005,-0.44263 -0.438586,0 -0.796994,0.35889 -0.796998,0.79748 -2e-6,0.4386 0.358407,0.797 0.796998,0.797 0.07237,0 0.142319,-0.0104 0.209042,-0.0288 l 0.128822,0.36853 c -0.107018,0.0316 -0.220297,0.049 -0.337864,0.049 -0.657177,0 -1.185823,-0.52863 -1.185823,-1.18582 0,-0.65717 0.528646,-1.1863 1.185823,-1.1863 z m 2.329652,0.62335 c 0.111814,-3.3e-4 0.19984,0.0576 0.227444,0.13637 l 1.56946,4.47622 c 0.0368,0.10495 -0.03369,0.24656 -0.198659,0.30436 l -1.619007,0.56767 c -0.164967,0.0578 -0.308143,-0.009 -0.344942,-0.11373 l -1.569931,-4.47621 c -0.0368,-0.10495 0.03323,-0.24798 0.198188,-0.30578 l 0.242073,-0.0849 0.05804,0.16469 c 0.02529,0.072 0.10865,0.10779 0.187335,0.0802 l 0.850792,-0.29822 c 0.07869,-0.0276 0.122038,-0.10813 0.09674,-0.18026 l -0.05804,-0.16421 0.242072,-0.0849 c 0.04125,-0.0149 0.08117,-0.0211 0.118441,-0.0213 z m -2.341921,0.0849 c 0.0041,-1e-4 0.008,0 0.01227,0 0.176349,1e-5 0.329072,0.0936 0.411948,0.23406 -0.259178,0.12774 -0.413519,0.41182 -0.318988,0.68139 l 0.01038,0.0298 c -0.03325,0.007 -0.06775,0.0109 -0.103341,0.0109 -0.265867,0 -0.478012,-0.21214 -0.47801,-0.47801 10e-7,-0.26171 0.205723,-0.47163 0.465741,-0.47802 z" />
  </g>
</svg>
