<?xml version="1.0" encoding="UTF-8" standalone="no"?>
<!-- Created with Inkscape (http://www.inkscape.org/) -->

<svg width="20.880001mm" height="24.416mm" viewBox="0 0 20.880002 24.416001" version="1.1" id="svg5" inkscape:version="1.2.2 (b0a8486541, 2022-12-01)" sodipodi:docname="tap4art5.svg" xml:space="preserve" xmlns:inkscape="http://www.inkscape.org/namespaces/inkscape" xmlns:sodipodi="http://sodipodi.sourceforge.net/DTD/sodipodi-0.dtd" xmlns="http://www.w3.org/2000/svg" xmlns:svg="http://www.w3.org/2000/svg"><sodipodi:namedview id="namedview7" pagecolor="#ffffff" bordercolor="#666666" borderopacity="1.0" inkscape:showpageshadow="2" inkscape:pageopacity="0.0" inkscape:pagecheckerboard="0" inkscape:deskcolor="#d1d1d1" inkscape:document-units="mm" showgrid="false" inkscape:zoom="6.7277215" inkscape:cx="31.957328" inkscape:cy="42.807955" inkscape:window-width="1920" inkscape:window-height="1131" inkscape:window-x="0" inkscape:window-y="0" inkscape:window-maximized="1" inkscape:current-layer="layer1" /><defs id="defs2"><rect x="317.22379" y="443.58926" width="288.80499" height="207.76013" id="rect480" /><rect x="128.29073" y="303.34052" width="486.75394" height="537.05377" id="rect242" /><rect x="99.571823" y="298.34662" width="694.12897" height="730.64685" id="rect236" /><rect x="317.22379" y="443.58926" width="288.80499" height="207.76013" id="rect480-5" /><rect x="128.29073" y="303.34052" width="486.75394" height="537.05377" id="rect242-3" /><rect x="99.571823" y="298.34662" width="694.12897" height="730.64685" id="rect236-5" /></defs><g inkscape:label="Layer 1" inkscape:groupmode="layer" id="layer1" transform="translate(-32.721199,-128.76714)"><g inkscape:label="Layer 1" id="layer1-6"><path style="fill:#fefefe;fill-opacity:0.574551;stroke:none;stroke-width:0.264583px;stroke-linecap:butt;stroke-linejoin:miter;stroke-opacity:1" d="m 43.144453,141.49362 1.085428,2.90476 0.270449,0.16455 2.095447,-0.75355 0.03137,-0.43387 -1.795739,-4.63131 -0.534583,-0.022 -0.464755,-0.85882 -1.373024,-0.65999 -1.264738,0.3744 -0.789867,0.77046 -0.255929,0.85299 0.168873,1.11327 0.376145,0.46738 0.526253,0.49489 0.712471,0.31491 h 0.754703 z" id="path19233-2" /><text xml:space="preserve" transform="scale(0.26458333)" id="text234-9" style="font-style:normal;font-weight:normal;font-size:40px;line-height:1.25;font-family:sans-serif;white-space:pre;shape-inside:url(#rect236-5);display:inline;fill:black;fill-opacity:1;stroke:none" /><path id="path354-1" style="font-size:40px;line-height:1.25;font-family:'Major Mono Display';-inkscape-font-specification:'Major Mono Display';white-space:pre;stroke-width:0.264583" d="m 43.214615,129.76708 -2.794661,6.8001 c -0.308145,0.21121 -0.593242,0.45422 -0.850594,0.72502 h -2.196765 v -7.1329 h 2.783292 v -0.3917 H 34.20793 v 0.3917 h 2.783293 v 7.1329 H 34.20793 v 7.36596 h 0.391707 v -3.49281 h 3.498495 c 0.06369,1.7646 0.996765,3.38325 2.491837,4.32273 v 6.48953 l -2.942456,-7.1608 h -0.412894 l -3.026689,7.36596 h 0.412895 l 1.005106,-2.43396 h 3.63027 l 0.994771,2.43396 h 0.338997 0.08423 0.306958 v -2.52957 h 2.656685 l 0.338481,-0.0103 1.809709,2.5399 h 0.465604 l -1.87327,-2.61432 c 0.522105,-0.14111 0.948931,-0.4264 1.280542,-0.85679 0.338661,-0.43744 0.508496,-0.93174 0.508496,-1.48208 0,-0.47272 -0.123579,-0.90282 -0.37052,-1.29088 -0.03213,-0.052 -0.06583,-0.10236 -0.101286,-0.15089 0.339073,-0.15957 0.66038,-0.35443 0.958598,-0.58136 v 0.002 h 2.783292 v 6.97426 h 0.380856 v -6.97426 h 2.783292 v -0.3917 l -2.015897,-2.77296 c 0.522104,-0.14111 0.948931,-0.42692 1.280542,-0.85731 0.338659,-0.43745 0.507979,-0.93124 0.507979,-1.48157 0,-0.47272 -0.123576,-0.90282 -0.37052,-1.29087 -0.239889,-0.38806 -0.571445,-0.68095 -0.994771,-0.8785 -0.183444,-0.0847 -0.388141,-0.14458 -0.613916,-0.17984 -0.218722,-0.0423 -0.483313,-0.0636 -0.79375,-0.0636 h -2.331124 c -0.03375,-0.0375 -0.06803,-0.0746 -0.102836,-0.1111 v -2.281 h 2.571936 c 0.522103,0 0.969642,-0.0953 1.343587,-0.28577 0.430386,-0.21872 0.769533,-0.53232 1.016475,-0.94155 0.253995,-0.40922 0.380856,-0.85727 0.380856,-1.3441 0,-0.508 -0.123578,-0.95605 -0.37052,-1.3441 -0.246945,-0.38806 -0.582291,-0.68802 -1.005624,-0.89969 -0.416269,-0.21167 -0.870893,-0.31781 -1.364774,-0.31781 h -2.963644 v 7.06365 c -0.114307,-0.0927 -0.232402,-0.18062 -0.353983,-0.26355 l -2.794662,-6.8001 z m 3.952731,0.39171 h 2.571936 c 0.444492,0 0.810913,0.0708 1.100191,0.21187 0.381,0.17639 0.684761,0.44098 0.910539,0.79375 0.225774,0.35278 0.33848,0.74094 0.33848,1.16427 0,0.43039 -0.112706,0.82183 -0.33848,1.17461 -0.225778,0.35275 -0.525742,0.61736 -0.899687,0.79375 -0.289277,0.14104 -0.659495,0.21135 -1.111043,0.21135 h -2.571936 z m -3.751709,0.11627 1.661397,4.04316 h -3.312459 z m -1.809709,4.42402 h 3.629753 l 0.629935,1.54099 c -0.755601,-0.39134 -1.593885,-0.59617 -2.444812,-0.59738 -0.854106,0.001 -1.695401,0.20779 -2.45308,0.60203 z m 1.798857,1.31878 c 2.737851,0 4.957324,2.21947 4.95732,4.95732 4e-6,2.73785 -2.219469,4.95732 -4.95732,4.95732 -2.737852,0 -4.957325,-2.21947 -4.957321,-4.95732 -4e-6,-2.73785 2.219469,-4.95732 4.957321,-4.95732 z m -8.805148,1.66553 h 4.630209 c -0.693714,0.88515 -1.089827,1.96695 -1.131714,3.09077 h -3.498495 z m 13.009542,0 h 1.992127 c 0.500936,0 0.889103,0.0566 1.16427,0.1695 0.380992,0.16228 0.677172,0.40944 0.888834,0.74104 0.218722,0.33162 0.328146,0.70182 0.328146,1.11104 0,0.36689 -0.09147,0.70552 -0.274919,1.01596 -0.183444,0.31044 -0.430595,0.55759 -0.74104,0.74104 -0.310444,0.18344 -0.64907,0.27492 -1.015959,0.27492 h -1.257804 c 0.03834,-0.25213 0.05855,-0.50669 0.06046,-0.76171 -0.0019,-1.19443 -0.404844,-2.35363 -1.144115,-3.29179 z m 2.57452,4.43487 1.952336,2.69855 h -5.030184 c 0.759135,-0.7271 1.286446,-1.66234 1.515669,-2.68821 h 1.223182 z m -12.748059,3.20653 1.661914,4.04316 h -3.312459 z m 3.54552,0.3886 c 0.754316,0.38946 1.590719,0.5932 2.439644,0.59428 0.65165,-0.002 1.297424,-0.12333 1.90531,-0.35812 0.04311,0.0537 0.08372,0.1099 0.12144,0.16899 0.218722,0.33161 0.328145,0.70182 0.328145,1.11104 0,0.36689 -0.09199,0.70552 -0.275435,1.01596 -0.183444,0.31045 -0.430082,0.5576 -0.740523,0.74104 -0.310444,0.18345 -0.64907,0.27543 -1.015959,0.27543 H 40.98116 Z" /><path id="path19202-2" style="fill:black;stroke-width:0.349999;stroke-linecap:round;stroke-linejoin:round;stroke-miterlimit:10" d="m 42.288956,137.12349 c -1.266571,0 -2.29709,1.03051 -2.297091,2.29709 1e-6,1.26658 1.03052,2.29709 2.297091,2.29709 0.246222,0 0.482989,-0.0401 0.705455,-0.11231 l 0.956965,2.72886 c 0.103299,0.29456 0.449047,0.41538 0.75217,0.30908 l 1.619007,-0.56766 c 0.303121,-0.10629 0.497315,-0.41654 0.394016,-0.71112 l -1.56946,-4.47621 c -0.100279,-0.28595 -0.429284,-0.40968 -0.725745,-0.31946 -0.339086,-0.846 -1.166745,-1.44536 -2.132408,-1.44536 z m 0,0.31898 c 0.829341,0 1.537993,0.50808 1.832295,1.23066 l -0.446867,0.15666 c -0.230787,-0.53693 -0.765295,-0.91449 -1.385428,-0.91449 -0.82989,0 -1.505284,0.67538 -1.505284,1.50528 0,0.8299 0.675394,1.50528 1.505284,1.50528 0.154513,0 0.303541,-0.0235 0.444036,-0.067 l 0.156191,0.44593 c -0.189293,0.0601 -0.390831,0.0934 -0.600227,0.0934 -1.093848,0 -1.976216,-0.88378 -1.976216,-1.97764 0,-1.09386 0.882368,-1.9781 1.976216,-1.9781 z m 0,0.79181 c 0.484309,0 0.89844,0.28747 1.082955,0.70168 l -0.36995,0.12977 c -0.131253,-0.26165 -0.401807,-0.44263 -0.713005,-0.44263 -0.438586,0 -0.796994,0.35889 -0.796998,0.79748 -2e-6,0.4386 0.358407,0.797 0.796998,0.797 0.07237,0 0.142319,-0.0104 0.209042,-0.0288 l 0.128822,0.36853 c -0.107018,0.0316 -0.220297,0.049 -0.337864,0.049 -0.657177,0 -1.185823,-0.52863 -1.185823,-1.18582 0,-0.65717 0.528646,-1.1863 1.185823,-1.1863 z m 2.329652,0.62335 c 0.111814,-3.3e-4 0.19984,0.0576 0.227444,0.13637 l 1.56946,4.47622 c 0.0368,0.10495 -0.03369,0.24656 -0.198659,0.30436 l -1.619007,0.56767 c -0.164967,0.0578 -0.308143,-0.009 -0.344942,-0.11373 l -1.569931,-4.47621 c -0.0368,-0.10495 0.03323,-0.24798 0.198188,-0.30578 l 0.242073,-0.0849 0.05804,0.16469 c 0.02529,0.072 0.10865,0.10779 0.187335,0.0802 l 0.850792,-0.29822 c 0.07869,-0.0276 0.122038,-0.10813 0.09674,-0.18026 l -0.05804,-0.16421 0.242072,-0.0849 c 0.04125,-0.0149 0.08117,-0.0211 0.118441,-0.0213 z m -2.341921,0.0849 c 0.0041,-1e-4 0.008,0 0.01227,0 0.176349,1e-5 0.329072,0.0936 0.411948,0.23406 -0.259178,0.12774 -0.413519,0.41182 -0.318988,0.68139 l 0.01038,0.0298 c -0.03325,0.007 -0.06775,0.0109 -0.103341,0.0109 -0.265867,0 -0.478012,-0.21214 -0.47801,-0.47801 10e-7,-0.26171 0.205723,-0.47163 0.465741,-0.47802 z" /></g><text xml:space="preserve" transform="scale(0.26458333)" id="text234" style="font-style:normal;font-weight:normal;font-size:40px;line-height:1.25;font-family:sans-serif;white-space:pre;shape-inside:url(#rect236);display:inline;fill:black;fill-opacity:1;stroke:none" /></g></svg>
